<svg id="visual" viewBox="0 0 900 600" width="900" height="600" xmlns="http://www.w3.org/2000/svg" xmlns:xlink="http://www.w3.org/1999/xlink" version="1.1"><rect x="0" y="0" width="900" height="600" fill="#001220"></rect><path d="M539 600L536 575C533 550 527 500 555 450C583 400 645 350 681.8 300C718.7 250 730.3 200 678.8 150C627.3 100 512.7 50 455.3 25L398 0L900 0L900 25C900 50 900 100 900 150C900 200 900 250 900 300C900 350 900 400 900 450C900 500 900 550 900 575L900 600Z" fill="#793EF9"></path></svg>