<svg id="visual" viewBox="0 0 900 600" width="900" height="600" xmlns="http://www.w3.org/2000/svg" xmlns:xlink="http://www.w3.org/1999/xlink" version="1.1"><rect x="0" y="0" width="900" height="600" fill="#001220"></rect><path d="M0 448L21.5 447.8C43 447.7 86 447.3 128.8 432.5C171.7 417.7 214.3 388.3 257.2 375.5C300 362.7 343 366.3 385.8 371.3C428.7 376.3 471.3 382.7 514.2 393.3C557 404 600 419 642.8 428.7C685.7 438.3 728.3 442.7 771.2 443.5C814 444.3 857 441.7 878.5 440.3L900 439L900 601L878.5 601C857 601 814 601 771.2 601C728.3 601 685.7 601 642.8 601C600 601 557 601 514.2 601C471.3 601 428.7 601 385.8 601C343 601 300 601 257.2 601C214.3 601 171.7 601 128.8 601C86 601 43 601 21.5 601L0 601Z" fill="#fa7268"></path><path d="M0 463L21.5 458.8C43 454.7 86 446.3 128.8 439.2C171.7 432 214.3 426 257.2 425C300 424 343 428 385.8 424.2C428.7 420.3 471.3 408.7 514.2 411.2C557 413.7 600 430.3 642.8 432C685.7 433.7 728.3 420.3 771.2 411.5C814 402.7 857 398.3 878.5 396.2L900 394L900 601L878.5 601C857 601 814 601 771.2 601C728.3 601 685.7 601 642.8 601C600 601 557 601 514.2 601C471.3 601 428.7 601 385.8 601C343 601 300 601 257.2 601C214.3 601 171.7 601 128.8 601C86 601 43 601 21.5 601L0 601Z" fill="#ef5f67"></path><path d="M0 460L21.5 462.5C43 465 86 470 128.8 466.2C171.7 462.3 214.3 449.7 257.2 450.5C300 451.3 343 465.7 385.8 466.5C428.7 467.3 471.3 454.7 514.2 452.3C557 450 600 458 642.8 466.5C685.7 475 728.3 484 771.2 484.8C814 485.7 857 478.3 878.5 474.7L900 471L900 601L878.5 601C857 601 814 601 771.2 601C728.3 601 685.7 601 642.8 601C600 601 557 601 514.2 601C471.3 601 428.7 601 385.8 601C343 601 300 601 257.2 601C214.3 601 171.7 601 128.8 601C86 601 43 601 21.5 601L0 601Z" fill="#e34c67"></path><path d="M0 492L21.5 497.2C43 502.3 86 512.7 128.8 519C171.7 525.3 214.3 527.7 257.2 522.2C300 516.7 343 503.3 385.8 497.3C428.7 491.3 471.3 492.7 514.2 501.2C557 509.7 600 525.3 642.8 529.2C685.7 533 728.3 525 771.2 518.3C814 511.7 857 506.3 878.5 503.7L900 501L900 601L878.5 601C857 601 814 601 771.2 601C728.3 601 685.7 601 642.8 601C600 601 557 601 514.2 601C471.3 601 428.7 601 385.8 601C343 601 300 601 257.2 601C214.3 601 171.7 601 128.8 601C86 601 43 601 21.5 601L0 601Z" fill="#d53867"></path><path d="M0 550L21.5 546.3C43 542.7 86 535.3 128.8 532.8C171.7 530.3 214.3 532.7 257.2 535.7C300 538.7 343 542.3 385.8 546.8C428.7 551.3 471.3 556.7 514.2 553.2C557 549.7 600 537.3 642.8 537.5C685.7 537.7 728.3 550.3 771.2 554.2C814 558 857 553 878.5 550.5L900 548L900 601L878.5 601C857 601 814 601 771.2 601C728.3 601 685.7 601 642.8 601C600 601 557 601 514.2 601C471.3 601 428.7 601 385.8 601C343 601 300 601 257.2 601C214.3 601 171.7 601 128.8 601C86 601 43 601 21.5 601L0 601Z" fill="#c62368"></path></svg>